<svg width="100%" height="100%" id="svg" viewBox="0 0 1440 590" xmlns="http://www.w3.org/2000/svg" class="transition duration-300 ease-in-out delay-150"><path d="M 0,600 L 0,150 C 58.14615384615385,169.15384615384616 116.2923076923077,188.30769230769232 200,185 C 283.7076923076923,181.69230769230768 392.9769230769231,155.9230769230769 495,163 C 597.0230769230769,170.0769230769231 691.8000000000001,210.00000000000003 758,215 C 824.1999999999999,219.99999999999997 861.8230769230768,190.07692307692304 931,178 C 1000.1769230769232,165.92307692307696 1100.9076923076925,171.6923076923077 1191,170 C 1281.0923076923075,168.3076923076923 1360.5461538461536,159.15384615384613 1440,150 L 1440,600 L 0,600 Z" stroke="none" stroke-width="0" fill="#0693e3" fill-opacity="0.53" class="transition-all duration-300 ease-in-out delay-150 path-0"></path><path d="M 0,600 L 0,350 C 64.14615384615385,371.31025641025644 128.2923076923077,392.62051282051283 207,379 C 285.7076923076923,365.37948717948717 378.97692307692296,316.8282051282052 454,322 C 529.023076923077,327.1717948717948 585.8000000000001,386.0666666666666 676,394 C 766.1999999999999,401.9333333333334 889.823076923077,358.9051282051282 983,334 C 1076.176923076923,309.0948717948718 1138.9076923076925,302.3128205128205 1210,308 C 1281.0923076923075,313.6871794871795 1360.5461538461536,331.84358974358975 1440,350 L 1440,600 L 0,600 Z" stroke="none" stroke-width="0" fill="#0693e3" fill-opacity="1" class="transition-all duration-300 ease-in-out delay-150 path-1"></path></svg>
