<svg width="100%" height="100%" id="svg" viewBox="0 0 1440 590" xmlns="http://www.w3.org/2000/svg" class="transition duration-300 ease-in-out delay-150"><path d="M 0,600 L 0,150 C 106.32535885167468,135.49282296650716 212.65071770334936,120.98564593301434 300,118 C 387.34928229665064,115.01435406698566 455.72248803827745,123.55023923444978 559,151 C 662.2775119617226,178.44976076555022 800.4593301435407,224.8133971291866 914,215 C 1027.5406698564593,205.1866028708134 1116.4401913875597,139.19617224880383 1200,119 C 1283.5598086124403,98.80382775119617 1361.77990430622,124.40191387559808 1440,150 L 1440,600 L 0,600 Z" stroke="none" stroke-width="0" fill="#eb144c" fill-opacity="0.53" class="transition-all duration-300 ease-in-out delay-150 path-0"></path><path d="M 0,600 L 0,350 C 84.32535885167462,350.1626794258373 168.65071770334924,350.32535885167465 261,339 C 353.34928229665076,327.67464114832535 453.72248803827756,304.8612440191388 556,323 C 658.2775119617224,341.1387559808612 762.4593301435406,400.2296650717703 852,409 C 941.5406698564594,417.7703349282297 1016.4401913875599,376.2200956937799 1112,358 C 1207.55980861244,339.7799043062201 1323.77990430622,344.88995215311 1440,350 L 1440,600 L 0,600 Z" stroke="none" stroke-width="0" fill="#eb144c" fill-opacity="1" class="transition-all duration-300 ease-in-out delay-150 path-1"></path></svg>
